PathFileType	4	(X/Y/Z)	/home/skhan/TracX/Projects/SHARESPACE/EXERCISES/pose-3d/online_20250326-113730_310-350.trc
DataRate	CameraRate	NumFrames	NumMarkers	Units	OrigDataRate	OrigDataStartFrame	OrigNumFrames
30	30	4	37	m	30	450	1200
Frame#	Time	Hip			RHip			RKnee			RAnkle			RBigToe			RSmallToe			RHeel			LHip			LKnee			LAnkle			LBigToe			LSmallToe			LHeel			Spine_01			Spine_02			Spine_03			Spine_04			Spine_05			LLatissimus			RLatissimus			RClavicle			RShoulder			RElbow			RWrist			LClavicle			LShoulder			LElbow			LWrist			Neck			Neck_02			Neck_03			Head			Nose			LEye			LEar			REye			REar		
		X1	Y1	Z1	X2	Y2	Z2	X3	Y3	Z3	X4	Y4	Z4	X5	Y5	Z5	X6	Y6	Z6	X7	Y7	Z7	X8	Y8	Z8	X9	Y9	Z9	X10	Y10	Z10	X11	Y11	Z11	X12	Y12	Z12	X13	Y13	Z13	X14	Y14	Z14	X15	Y15	Z15	X16	Y16	Z16	X17	Y17	Z17	X18	Y18	Z18	X19	Y19	Z19	X20	Y20	Z20	X21	Y21	Z21	X22	Y22	Z22	X23	Y23	Z23	X24	Y24	Z24	X25	Y25	Z25	X26	Y26	Z26	X27	Y27	Z27	X28	Y28	Z28	X29	Y29	Z29	X30	Y30	Z30	X31	Y31	Z31	X32	Y32	Z32	X33	Y33	Z33	X34	Y34	Z34	X35	Y35	Z35	X36	Y36	Z36	X37	Y37	Z37
450	15.0	-0.049880296914119604	-0.46678275418713133	0.2020812698611281	-0.027583433738174026	-0.377967194364227	0.07823981140325838	0.3395122511806975	-0.6997596121618013	-0.07870628833045021	0.649295675890761	-0.88680450138018	-0.12197929350701431	0.8315134877250816	-0.890543566046508	-0.16541183281522936	0.7890542541910249	-0.8754203776144827	-0.20058121018136849	0.6864800373922794	-0.9039303773522037	-0.07512983337677094	0.04659543059684614	-0.41798057910566566	0.293864175286707	0.38162418428826356	-0.6757189227452445	0.10993775604785475	0.693450636522101	-0.9270127129733826	-0.041780040181799136	0.8565641810619142	-0.8891513540256204	-0.14474450322322346	0.8665376593177563	-0.9120800346455218	-0.09360465814932342	0.7128273024971957	-0.9584339464588758	-0.03515045435102293	-0.09791102371648208	-0.42460780375865964	0.21846970957921627	-0.17281241998947225	-0.3464747371941185	0.2505036350881681	-0.264571313535916	-0.24197733310365394	0.2915125162109336	-0.3635203643104022	-0.1395430373471514	0.3355805575886467	-0.45343949402468947	-0.03676615205299851	0.3811539772676549	-0.2210671749687665	-0.224151709296933	0.394151300039533	-0.3518723992189764	-0.2346428205792579	0.17709112108001887	-0.44382704784176513	-0.07129983840972079	0.3387058037673756	-0.564924796554895	-0.04672825249616013	0.19714932266227736	-0.5790710225970505	-0.12576463130014987	-0.08477459395888089	-0.44300516607703505	0.03562778627428568	-0.22747383895542111	-0.4259930151147791	-0.07385140409768622	0.3677115040379869	-0.339170410394215	-0.08395662155030573	0.5476534813532593	-0.09349166672569888	-0.3068247498037023	0.5177113819824996	0.1542073148948348	-0.4980311037747827	0.3941839998747757	-0.5185597715848231	0.04154508083778899	0.43125202069433055	-0.5432810034079402	0.07719037055909525	0.4592112898529095	-0.5774196110000208	0.1265751933213587	0.5003717216613351	-0.630955690484871	0.20426974405113474	0.5659429678099491	-0.4887661120361769	0.19338122208712988	0.41303663411305147	-0.5023358322788087	0.19267721456789444	0.47630027165583483	-0.47813278375601076	0.10859030433099423	0.5375363984455138	-0.5544267908341959	0.20060351173461338	0.4211935208431953	-0.6235597253775587	0.13853008269381617	0.3818517834389761
451	15.033333333333333	-0.048793513583931275	-0.46428663814276333	0.2027200098883481	-0.028227629807666174	-0.3788791765589679	0.07685517322577627	0.339999954823637	-0.6925128374026714	-0.07801472992131633	0.6491178660606514	-0.8879819142595605	-0.12155904341982202	0.8314112584924218	-0.8866702574158623	-0.16473940139937507	0.789372974675431	-0.8753183027835985	-0.20036134214458387	0.6872873758799559	-0.9040961887968897	-0.07420820816783234	0.04574741745333538	-0.41989267524631163	0.2934404160987815	0.3824422163807218	-0.6724644723512996	0.10929670191487845	0.6949127917064793	-0.9239580026707873	-0.04199860715957872	0.8574762880925657	-0.8868539660638529	-0.14558892052282588	0.8669649039419376	-0.9066834547174869	-0.09350992784759991	0.7138731743135233	-0.9549510358295389	-0.034998130922267404	-0.09685235674573928	-0.42223416331772123	0.21909802203698905	-0.17217754034044838	-0.3452422176282398	0.25082583000814157	-0.2645229077464464	-0.2417174878952141	0.29241025818736355	-0.3642706322568341	-0.13967354838230217	0.3372851795743582	-0.45431075914317465	-0.038314551281473944	0.3832857096249175	-0.22069731424351388	-0.22189071620976447	0.3941666184013319	-0.3526299271732489	-0.23700427270211077	0.1775577091018055	-0.44512451315648505	-0.07113090867840807	0.34094703157296297	-0.5660598653294202	-0.048549761115511375	0.19787108432939052	-0.5799172749899261	-0.12522136037739545	-0.08445895742765545	-0.44448866253948294	0.033878207664562315	-0.22935254535231564	-0.4267491091091902	-0.07343918738880495	0.3700731206435446	-0.3397680092162073	-0.08892738742093194	0.5471508410229807	-0.09278163338792393	-0.3134514181777653	0.5147839650942896	0.1562782206848066	-0.5037395359545697	0.3901968431653107	-0.5194916054981981	0.03861332020876221	0.4340846294824346	-0.5441030136523335	0.07336631823863035	0.46202694166312097	-0.5780936030991362	0.12202454799413744	0.5029832591466208	-0.6318616792238139	0.19828226377314684	0.5682593850271742	-0.4897441672261271	0.19205596071471914	0.4158625451404551	-0.5027991776889258	0.1914538309537775	0.47884060546426566	-0.4785042124001735	0.10708445986470662	0.5389805083366124	-0.5552751840576223	0.19783233003097736	0.4241845131200485	-0.6243845015526597	0.13705981467451517	0.3843712921589147
452	15.066666666666666	-0.049777052304149146	-0.46707534462140665	0.19984781579107083	-0.030596615098380096	-0.37944913683117015	0.0755977564376316	0.3401819608941407	-0.690104627306558	-0.07972884098656048	0.6479630512878907	-0.8850221982180794	-0.12277367155922286	0.8308446817930928	-0.8854662806685918	-0.16454022077589245	0.7892352384131126	-0.8730734003668101	-0.20052674704622156	0.6875024522776759	-0.9023435567055901	-0.075207201376681	0.04418638048401359	-0.42232842463140086	0.29129682505124177	0.3828377448031717	-0.676690342054266	0.10689402168318758	0.6964293107912938	-0.9207905234068251	-0.042195369240275324	0.8588985470931285	-0.8873280804605466	-0.1473590760757964	0.8687133722273414	-0.9061746682979712	-0.09491628275333305	0.7149171238837583	-0.9517928979066949	-0.034587952946021364	-0.09794285733477848	-0.4248231982788413	0.21654704586461831	-0.17329541721359343	-0.3500834373507813	0.24854670077347382	-0.2659718506853624	-0.24829239317178398	0.2906933553096965	-0.3658771474374498	-0.14587174266198277	0.33689473635926165	-0.45580934131938583	-0.0435490085447947	0.38422180562467423	-0.2223042990179053	-0.23182236345004748	0.39241167561254464	-0.35367261694183694	-0.23858666879521206	0.17753583829881167	-0.4465203093014989	-0.07749815670489096	0.341184019884733	-0.5660767951734527	-0.05245849936500872	0.19734132267357468	-0.5796294210650172	-0.12469568325891388	-0.08459019006298152	-0.443799209326631	0.031407884030909085	-0.23077505017734204	-0.42840324075860353	-0.07825750210145045	0.3715059390013169	-0.3401985701257476	-0.0919468234080057	0.547232818923018	-0.0921534004991837	-0.3153028801471801	0.5131974012410795	0.15700932989978209	-0.506884865937041	0.38750624261780764	-0.5206911945111312	0.033655418295321336	0.43574395133486993	-0.5451313476497	0.06921118085051035	0.46405119522503613	-0.5789969399365257	0.11785310344841424	0.5050925288264134	-0.6321308214564417	0.19512935435311882	0.5707057903665304	-0.49094698453976277	0.19173422474504567	0.41731786125674347	-0.5041624919172372	0.1903704506113807	0.4806817197908662	-0.47925775442636553	0.10642921804712308	0.539954037450323	-0.556785838878777	0.19797591395974556	0.426786394041605	-0.6251572889450037	0.1347510354724282	0.3858206671554596
453	15.1	-0.050377614386288974	-0.4723967773301928	0.19553608137028566	-0.03186892651908574	-0.38264679859567197	0.07346272132974356	0.34108789922468313	-0.6882288885334079	-0.07969856799355549	0.6497065065447845	-0.8907603723332687	-0.12498732212043213	0.8311741350214894	-0.8865395690448421	-0.16912945768850904	0.7882537386283616	-0.8689490255023751	-0.2032852663118614	0.6873213648015668	-0.905930454147781	-0.07656517532172079	0.04322941903179522	-0.42317566706254883	0.29000519997377733	0.38201877272304824	-0.6773971409418768	0.10637320304420388	0.6971358506872278	-0.9230389242352468	-0.042386137777065666	0.8578149118141266	-0.8860353944643927	-0.14698776139397468	0.8685476055487624	-0.9051714080161506	-0.09447802110576095	0.714484165733067	-0.9522743045980011	-0.03521144775027722	-0.09851276801017497	-0.4313545701551295	0.21243519840849323	-0.17420054166164478	-0.35649561770204086	0.2452063882279214	-0.2669994932150248	-0.25458418630627855	0.2875580306592516	-0.36687397662749477	-0.15167170817186693	0.3339311502284454	-0.4566001402063245	-0.048437168850670995	0.38270877981677615	-0.2223924295245937	-0.23878784735692268	0.3902730330827756	-0.35467746285224516	-0.24517004916850504	0.17374138130429112	-0.4475411511709416	-0.0833727967295381	0.3390864129373405	-0.5670797245178365	-0.05525895832852972	0.19676861010007374	-0.580452253706029	-0.1252583444920632	-0.08538328013627412	-0.4455974109597961	0.031508173179714764	-0.23158831459822907	-0.428876239894853	-0.08376920366671525	0.36964705935329134	-0.3416784998431123	-0.09353150705230283	0.5473112568344911	-0.09352710947180086	-0.3155915238639441	0.5116652151129023	0.15601893422061752	-0.5088431436171531	0.38618213323038963	-0.5210423559075853	0.029929430565179858	0.434943732316125	-0.54527547926803	0.06583053447442631	0.46322294340822423	-0.5792390956203294	0.11579370446026224	0.5049881307961585	-0.632187518247449	0.19492344098989312	0.5712155647373006	-0.4918533143800896	0.19302615251690164	0.419512814248726	-0.5051101416949343	0.19100134924488255	0.48270095299869487	-0.4800643610751262	0.10609511604841175	0.5405499179032461	-0.5573964769364993	0.19737688097656872	0.4290904021184309	-0.6259903093561836	0.13334861108629378	0.38664102716841364
